<?xml version="1.0" encoding="utf-8"?>
<!-- Generator: Adobe Illustrator 19.0.1, SVG Export Plug-In . SVG Version: 6.00 Build 0)  -->
<svg version="1.1" id="Layer_1" xmlns="http://www.w3.org/2000/svg" xmlns:xlink="http://www.w3.org/1999/xlink" x="0px" y="0px"
	 viewBox="0 0 64 64" style="enable-background:new 0 0 64 64;" xml:space="preserve">
<style type="text/css">
	.st0{fill:#FFFFFF;}
</style>
<g>
	<path class="st0" d="M59.1,15.7C52.2,12,45.5,7.8,38.5,4.3c-0.4-0.2-0.7-0.1-1,0.2c0,0-0.1,0-0.1,0c-1.7,0.2-3.3,2-4.1,3.4
		c-0.7,1.2-0.8,2.8-0.5,4.2c-1.8,0-3.6,0.1-5.3,0.2C28,9.8,27.2,6,25.2,4.5c-2.6-1.8-6.6-1.2-9.5-1.1c-0.6,0-1.2,0.5-1.2,1.2
		c0.1,2.7,0.3,5.4,0.5,8.1c-2,0.1-4,0.5-5.4,1.4c0,0,0,0,0,0c-0.4-0.4-1.1-0.3-1.4,0.2c0,0,0,0,0,0c-0.2-0.2-0.4-0.3-0.7-0.1
		c-4,2.7-3.9,3-3.8,7.7c0.1,3.2-0.2,8.3,2.1,11c1.6,1.8,4.2,0.9,6.3,0.7c0.7-0.1,1.3-0.1,2-0.2c-0.8,3.5-0.8,7-0.7,10.6
		c0.1,4-0.3,8.1,0.1,12.1c0.6,5.7,7.8,3.7,11.6,4c0.7,0.1,1.3-0.6,1.3-1.3c-0.1-8.7-2-18.1-0.2-26.7c3.4-0.1,4.6,0.6,6,4.6
		c0.3,0.9,1.3,1.2,2.1,0.5c1.4-1.3,3.2-2.4,4.4-3.9c0.1,0.2,0.3,0.5,0.6,0.6c0.2,0.2,0.6,0.2,0.9,0c0.3-0.2,0.5-0.5,0.6-0.8
		c0.2,0.2,0.5,0.3,0.8,0.2c7.2-2.4,12.6-8.8,17.1-14.6c0.2-0.3,0.3-0.7,0.3-1C59.7,17.5,60.1,16.3,59.1,15.7z M16.8,5.7
		c2.2-0.1,4.8-0.2,6.7,0.7c2,1,1.2,4.1,1.7,5.9c-0.9,0.1-1.7,0.1-2.6,0.2c-1.8,0.1-4,0-6.3,0.1C16.5,10.3,16.6,8,16.8,5.7z
		 M20.1,57.6c-4.4,0.2-4.2-3.7-4-6.7c0.4-5.9-1-11.7-0.7-17.5c2.6-0.3,5.2-0.7,7.8-1c-0.6,2.8-0.2,6.7-0.1,8.4
		c0.1,5.6,0.6,11.2,0.7,16.8C22.5,57.5,21.3,57.6,20.1,57.6z M40.7,31.7C40.7,31.7,40.7,31.7,40.7,31.7c-0.1-0.3-0.2-0.6-0.2-0.9
		c-0.3-1.8-0.5-3.6-0.6-5.4c0-0.5-0.4-0.6-0.7-0.6c-0.2-0.2-0.4-0.4-0.8-0.4C29.5,25,19.7,24.8,11,27.1c0-2.3-0.2-4.7-0.4-7
		c-0.2-1.7,0-3.6-0.6-5.3c3,1.6,7.7,0.4,10.9,0.2c5.8-0.4,11.5-0.8,17.3-0.6c1.2,0,1.5-1.4,0.9-2.1c0.1-1.1,0.1-2.3,0.1-3.4
		c0-0.8,0-1.6-0.1-2.4c5.8,3.8,11.7,7.4,17.8,10.7C52.3,22.9,47.3,28.5,40.7,31.7z"/>
	<path class="st0" d="M23.7,19.1c-0.5-0.8-1.3-1.1-2.2-1.2c-0.7,0-1.8,0.2-2.4,0.8c-0.3,0-0.5,0.1-0.8,0.2c-0.8,0.4-1.2,1.4-1.2,2.2
		c0,1,0.6,1.8,1.4,2.3c1,0.6,2.4,0.3,3.4-0.1C23.4,22.6,24.6,20.7,23.7,19.1z M21.9,20.5c0,0.2-0.2,0.5-0.5,0.7
		c-0.5,0.4-1.9,0.8-2.2,0c-0.2-0.4,0-0.8,0.2-1c0.8,0.1,2-0.5,2.5,0C21.9,20.2,21.9,20.3,21.9,20.5z"/>
</g>
</svg>
