<?xml version="1.0" encoding="utf-8"?>
<!-- Generator: Adobe Illustrator 19.0.1, SVG Export Plug-In . SVG Version: 6.00 Build 0)  -->
<svg version="1.1" id="Layer_1" xmlns="http://www.w3.org/2000/svg" xmlns:xlink="http://www.w3.org/1999/xlink" x="0px" y="0px"
	 viewBox="0 0 64 64" style="enable-background:new 0 0 64 64;" xml:space="preserve">
<style type="text/css">
	.st0{fill:#FFFFFF;}
</style>
<g>
	<path class="st0" d="M55.5,23.1c-4.8-3.4-10.3-7.7-15.7-10.3c0-0.9,0-1.8,0-2.6c-0.2-7.7-6.2-8-12.4-7.1C22.7,3.8,7.2-0.2,5.3,6.7
		c-1.1,4.1-0.4,8.9-0.5,13.1C4.6,27,5.1,34.1,5.7,41.3c0.1,0.7,0.8,0.9,1.2,0.6c0,0,0,0,0.1,0c3.3,0.8,6.6,0.5,9.9,0.2
		c-0.9,1.4-1.9,2.7-2.8,4.1c-0.3,0.4-0.2,1.1,0.2,1.5c7.3,7,16.9,9.9,26.1,13.7c0.4,0.2,0.9,0,1.2-0.3c8-7.5,15.1-18.5,17.6-29.3
		C60,28.5,58.2,25,55.5,23.1z M38.2,41.1c0.1-0.1,0.2-0.2,0.3-0.4c1.6-3.5,1.1-8.2,1.2-11.9c0.1-2.2,0.1-4.5,0.2-6.7
		c2.6,1.6,5.2,3.3,7.6,5.2c5.2,4.3,3.3,8.4,0.4,13.5c-0.9,1.6-4.6,8.6-6.5,7.8c-5-2-10.2-3.4-14.6-6.6c3.4,0.3,6.9,0.7,10.3,0.5
		C37.9,42.4,38.3,41.7,38.2,41.1z M7.5,39.9c-0.1,0-0.2,0-0.3,0c0-7.6-0.3-15.2-0.1-22.7c0.1-2.6,0-5.2,0-7.8
		c0-6.3,12.7-3.7,15.9-3.5c2,0.1,4.7-0.5,6.6-0.8c5.7-0.8,8.1,3.7,8,8.9c0,1.6,0,3.2,0,4.7c-0.5,0.5-0.7,1.4,0,1.9
		c0,1.9,0,3.7,0,5.6c-0.1,3.8,0.6,9.8-1,13.4c-0.1,0.2-0.1,0.4-0.1,0.5c-3.8-0.4-7.6-0.5-11.4-0.8C19.1,39,13.3,40.7,7.5,39.9z
		 M55.8,34.5c-1.1,3.4-2.9,6.6-4.6,9.6c-1.8,3.3-8,15.7-12.5,13.8c-4.1-1.7-8.1-3.2-12.1-5c-5.3-2.4-10.9-4.5-7.5-10.9
		c0-0.1,0.1-0.2,0.1-0.2c0.8-0.1,1.5-0.1,2.3-0.1c1.2,0,2.4,0,3.6,0.1c-0.1,0.2-0.1,0.5,0.2,0.8c4.7,4.6,11.2,6.4,17.1,8.9
		c0.4,0.1,0.9,0,1.2-0.3c4.3-5.1,9.6-11.7,10.2-18.5c0.5-5.8-9.1-10.9-13.8-13.5c0-1.1,0-2.2,0-3.3c2.6,2.1,5.7,3.8,8.4,5.7
		C52.6,24.6,57.8,27.8,55.8,34.5z"/>
	<path class="st0" d="M34.3,7.1c-7.2,0-14.4,0-21.6,0c-0.6,0-1,0.4-1.2,0.9c-2,7.2-1.9,15.8-0.8,23.3c-0.5,0.4-0.6,1.3,0.2,1.5
		c0.2,0.8,1.2,0.8,1.7,0.3c6.6,1.3,13.5,0.6,20.2,0.4c0.3,0.6,1.4,0.5,1.5-0.4C35,24.9,34,16.7,35.5,8.6C35.6,7.8,35.2,7.1,34.3,7.1
		z M13.1,31.2c0.1-6.1-0.6-12.1,0-18.1c0.1-1.1-0.1-3.6,1.5-3.6c2.4,0,4.8,0,7.2,0c3.7,0,7.5,0,11.2,0c-1.1,7.1-0.9,14.5-0.3,21.7
		C26.1,31.1,19.6,32,13.1,31.2z"/>
</g>
</svg>
