<?xml version="1.0" encoding="utf-8"?>
<!-- Generator: Adobe Illustrator 19.0.1, SVG Export Plug-In . SVG Version: 6.00 Build 0)  -->
<svg version="1.1" id="Layer_1" xmlns="http://www.w3.org/2000/svg" xmlns:xlink="http://www.w3.org/1999/xlink" x="0px" y="0px"
	 viewBox="0 0 64 64" style="enable-background:new 0 0 64 64;" xml:space="preserve">
<style type="text/css">
	.st0{fill:#FFFFFF;}
</style>
<path class="st0" d="M54.5,19.3c-4,0.5-8.1,0.7-12.1,0.8c4.1-4.6,9.7-15,1.5-15.5c-3.1-0.2-7,6.1-8.2,10.5c-0.3-0.3-0.7-0.6-1.2-0.8
	c-1-0.4-1.8-0.2-2.5,0.3c-1-5.2-3.6-11.2-8.9-9.9c-3.8,0.9-5.3,4.8-3.6,8.1c1.4,2.8,4.5,5.3,7.4,7.1c-5.3-0.3-10.7-0.6-16-0.9
	c-0.7,0-1.2,0.6-1.3,1.3c0,0.1,0,0.2,0,0.3c-2,1.9-1.3,6-1,8.3c0.1,0.8,0.7,1.2,1.5,1.1c1-0.1,1.9-0.2,2.9-0.3
	c-0.9,4.7-0.4,9.2,0.2,13.9c0.5,4.3-0.2,8.8,1.6,12.9c1,2.3,4.1,2.6,6.2,2.8c5.3,0.5,11.5-0.5,16.9-0.7c6.7-0.2,12.5-1.4,12.4-8.7
	c-0.1-6.6-0.8-13.7,0-20.3c0-0.2,0-0.3-0.1-0.4c1.1-0.1,2.2-0.1,3.2-0.2c0.5,0,1-0.5,1.1-1c0.6,0.1,1.3-0.3,1.4-1.2
	c0.1-2.1,0.1-4.2,0.1-6.3C55.8,20,55.2,19.2,54.5,19.3z M13.1,27.3c-0.5,0-0.9,0.1-1.4,0.2c-1.3-7.6,9.9-6,17.1-5.1
	c-0.7,1.3-1.1,3.1-1.2,5c-0.8,0-1.5,0-2.3,0C25.2,27.2,25,27,24.6,27c-2.8-0.1-5.7-0.1-8.5,0.1C14.2,26.3,13.3,26.4,13.1,27.3z
	 M14.6,38.4c-0.2-3.6-0.1-6.8,0.1-8.8c1.2-0.1,2.5-0.1,3.7-0.1c3,0.1,6.1,0.2,9.1,0.2c0,2.3,0.1,4.4,0,5.9c0,0.7-0.1,1.4-0.1,2.2
	C23.1,37.5,18.1,36.8,14.6,38.4z M22.5,56.5c-4.2,0.3-6.3-5.6-7.3-12.1c3.9,0.2,7.9,0.5,11.8,0.6c-0.1,3.6,0.2,7.2,1.3,10.3
	c0.1,0.3,0.4,0.7,0.8,0.7c0,0.1,0,0.2,0,0.3C26.9,56.3,24.6,56.4,22.5,56.5z M29.1,20c0-0.1-0.1-0.1-0.1-0.2c-1.7-2.1-4-3.6-5.7-5.6
	c-2-2.3-3.7-6.7,1-7.3c4.5-0.6,5.8,9.6,5.8,12.5c0,0.2,0.1,0.4,0.2,0.6C29.9,20,29.5,20,29.1,20z M38.5,13.8
	c0.9-2.1,2.6-6.5,5.4-6.7c4.2-0.3,0,6.6-0.8,7.7c-1,1.6-3.3,3.5-4,5.4c-0.9,0-1.8,0-2.7,0c0.2-0.5,0.3-1,0.4-1.5
	c0.2-0.2,0.3-0.8,0.4-1.3C37.5,16.2,38,15,38.5,13.8z M34.2,20c0,0.1,0,0.1,0,0.2c-0.6,0-1.2,0-1.9,0c0.1-0.2,0.2-0.4,0.2-0.7
	c0-0.7,0.1-3.2,1.3-2.9C35.2,16.9,34.4,19.2,34.2,20z M45.4,54.1c-3.1,1.3-6.8,1.8-10.5,2c0,0,0,0,0-0.1c0.2-3.6,0.3-7.3,0.3-10.9
	c4,0.1,8.7,0,12-1.9c0.1-0.1,0.2-0.2,0.3-0.3C47.6,47.6,47.5,53.2,45.4,54.1z M47.2,36.9c0,0.1,0,0.3,0,0.4c-3.7-0.6-8-0.2-11.9,0.2
	c0-2.6,0-5.2,0-7.8c4.2,0,8.4-0.1,12.6-0.3C46.8,31.4,47.3,34.8,47.2,36.9z M53.3,26.8c-3.6-1.2-8.9-0.2-12.3,0.1
	c-1.9,0.2-3.8,0.3-5.7,0.3c0-1.5,0-2.9,0-4.4c3.4,0.1,6.7,0.1,10.1,0c2.1-0.1,4.1-0.2,6.1-0.4C54.2,22.1,53.3,25.1,53.3,26.8z"/>
</svg>
